<svg width="166" height="30" viewBox="0 0 166 30" fill="none" xmlns="http://www.w3.org/2000/svg">
<path d="M52.3972 19.816C50.7012 21.496 48.6372 22.336 46.2052 22.336C43.7732 22.336 41.7092 21.496 40.0132 19.816C38.3332 18.104 37.4932 16.032 37.4932 13.6C37.4932 11.152 38.3332 9.088 40.0132 7.408C41.7092 5.712 43.7732 4.864 46.2052 4.864C48.6372 4.864 50.7012 5.712 52.3972 7.408C54.0932 9.088 54.9412 11.152 54.9412 13.6C54.9412 16.048 54.0932 18.12 52.3972 19.816ZM42.3412 17.56C43.3652 18.584 44.6532 19.096 46.2052 19.096C47.7572 19.096 49.0452 18.584 50.0692 17.56C51.1092 16.52 51.6292 15.2 51.6292 13.6C51.6292 12 51.1092 10.68 50.0692 9.64C49.0292 8.6 47.7412 8.08 46.2052 8.08C44.6692 8.08 43.3812 8.6 42.3412 9.64C41.3012 10.68 40.7812 12 40.7812 13.6C40.7812 15.2 41.3012 16.52 42.3412 17.56ZM64.109 9.664C65.725 9.664 67.101 10.28 68.237 11.512C69.389 12.744 69.965 14.24 69.965 16C69.965 17.792 69.389 19.296 68.237 20.512C67.117 21.728 65.741 22.336 64.109 22.336C62.429 22.336 61.133 21.752 60.221 20.584V26.8H57.125V10H60.221V11.416C61.133 10.248 62.429 9.664 64.109 9.664ZM61.157 18.448C61.781 19.072 62.573 19.384 63.533 19.384C64.493 19.384 65.285 19.072 65.909 18.448C66.549 17.808 66.869 16.992 66.869 16C66.869 15.008 66.549 14.2 65.909 13.576C65.285 12.936 64.493 12.616 63.533 12.616C62.573 12.616 61.781 12.936 61.157 13.576C60.533 14.2 60.221 15.008 60.221 16C60.221 16.992 60.533 17.808 61.157 18.448ZM83.8124 17.272H74.7644C75.1644 18.776 76.2924 19.528 78.1484 19.528C79.3324 19.528 80.2284 19.128 80.8364 18.328L83.3324 19.768C82.1484 21.48 80.4044 22.336 78.1004 22.336C76.1164 22.336 74.5244 21.736 73.3244 20.536C72.1244 19.336 71.5244 17.824 71.5244 16C71.5244 14.208 72.1164 12.704 73.3004 11.488C74.4684 10.272 75.9884 9.664 77.8604 9.664C79.6364 9.664 81.0844 10.272 82.2044 11.488C83.3564 12.704 83.9324 14.208 83.9324 16C83.9324 16.336 83.8924 16.76 83.8124 17.272ZM74.7164 14.872H80.8364C80.6604 14.088 80.3004 13.488 79.7564 13.072C79.2284 12.656 78.5964 12.448 77.8604 12.448C77.0284 12.448 76.3404 12.664 75.7964 13.096C75.2524 13.512 74.8924 14.104 74.7164 14.872ZM92.7657 9.664C94.0937 9.664 95.1737 10.104 96.0057 10.984C96.8697 11.88 97.3017 13.096 97.3017 14.632V22H94.2057V15.016C94.2057 14.232 93.9897 13.624 93.5577 13.192C93.1417 12.76 92.5657 12.544 91.8297 12.544C91.0137 12.544 90.3657 12.8 89.8857 13.312C89.4217 13.808 89.1897 14.544 89.1897 15.52V22H86.0937V10H89.1897V11.344C89.9257 10.224 91.1177 9.664 92.7657 9.664ZM109.137 11.488V10H112.161V21.424C112.161 23.264 111.545 24.68 110.313 25.672C109.097 26.648 107.625 27.136 105.897 27.136C103.177 27.136 101.281 26.16 100.209 24.208L102.849 22.696C103.441 23.816 104.489 24.376 105.993 24.376C106.969 24.376 107.737 24.12 108.297 23.608C108.857 23.096 109.137 22.368 109.137 21.424V20.128C108.225 21.344 106.945 21.952 105.297 21.952C103.601 21.952 102.177 21.36 101.025 20.176C99.8893 18.96 99.3213 17.504 99.3213 15.808C99.3213 14.112 99.8973 12.664 101.049 11.464C102.201 10.264 103.617 9.664 105.297 9.664C106.945 9.664 108.225 10.272 109.137 11.488ZM108.177 18.184C108.817 17.56 109.137 16.768 109.137 15.808C109.137 14.848 108.817 14.072 108.177 13.48C107.553 12.856 106.753 12.544 105.777 12.544C104.817 12.544 104.009 12.856 103.353 13.48C102.729 14.072 102.417 14.848 102.417 15.808C102.417 16.768 102.729 17.56 103.353 18.184C103.993 18.792 104.801 19.096 105.777 19.096C106.753 19.096 107.553 18.792 108.177 18.184ZM116.505 8.56C115.993 8.56 115.545 8.376 115.161 8.008C114.793 7.624 114.609 7.176 114.609 6.664C114.609 6.152 114.793 5.704 115.161 5.32C115.545 4.936 115.993 4.744 116.505 4.744C117.033 4.744 117.481 4.936 117.849 5.32C118.233 5.704 118.425 6.152 118.425 6.664C118.425 7.176 118.233 7.624 117.849 8.008C117.481 8.376 117.033 8.56 116.505 8.56ZM118.065 22H114.969V10H118.065V22ZM127.354 4.864V7.84C125.658 7.728 124.81 8.408 124.81 9.88V10H127.354V12.976H124.81V22H121.714V12.976H119.986V10H121.714V9.88C121.714 8.168 122.186 6.88 123.13 6.016C124.09 5.136 125.498 4.752 127.354 4.864ZM136.012 10V12.976H133.3V17.968C133.3 18.384 133.404 18.688 133.612 18.88C133.82 19.072 134.124 19.184 134.524 19.216C134.924 19.232 135.42 19.224 136.012 19.192V22C133.916 22.24 132.42 22.048 131.524 21.424C130.644 20.784 130.204 19.632 130.204 17.968V12.976H128.116V10H130.204V7.576L133.3 6.64V10H136.012ZM142.223 20.272C142.223 20.832 142.023 21.312 141.623 21.712C141.223 22.112 140.743 22.312 140.183 22.312C139.623 22.312 139.143 22.112 138.743 21.712C138.343 21.312 138.143 20.832 138.143 20.272C138.143 19.712 138.343 19.232 138.743 18.832C139.143 18.432 139.623 18.232 140.183 18.232C140.743 18.232 141.223 18.432 141.623 18.832C142.023 19.232 142.223 19.712 142.223 20.272ZM144.949 22V5.2H148.261V22H144.949ZM161.451 20.512C160.235 21.728 158.731 22.336 156.939 22.336C155.147 22.336 153.643 21.728 152.427 20.512C151.211 19.296 150.603 17.792 150.603 16C150.603 14.224 151.211 12.728 152.427 11.512C153.659 10.28 155.163 9.664 156.939 9.664C158.715 9.664 160.219 10.28 161.451 11.512C162.683 12.744 163.299 14.24 163.299 16C163.299 17.776 162.683 19.28 161.451 20.512ZM154.611 18.376C155.235 19 156.011 19.312 156.939 19.312C157.867 19.312 158.643 19 159.267 18.376C159.891 17.752 160.203 16.96 160.203 16C160.203 15.04 159.891 14.248 159.267 13.624C158.643 13 157.867 12.688 156.939 12.688C156.011 12.688 155.235 13 154.611 13.624C154.003 14.264 153.699 15.056 153.699 16C153.699 16.944 154.003 17.736 154.611 18.376Z" fill="#1E959B"/>
<path d="M20.3804 9.56615C20.3804 8.3447 19.9059 7.19754 19.0444 6.336C18.1828 5.47447 17.0357 5 15.8143 5C15.8142 5 15.8143 5 15.8143 5C14.5929 5 13.4456 5.47451 12.5842 6.336L11.1591 7.76105C10.9989 7.92121 10.9989 8.18093 11.1591 8.34113C11.3193 8.50126 11.579 8.5013 11.7391 8.34113L13.1642 6.91609C13.8708 6.20943 14.8119 5.82031 15.8143 5.82031C16.8166 5.82031 17.7577 6.20947 18.4643 6.91609C19.1709 7.6227 19.5601 8.56381 19.5601 9.56615C19.5601 10.5685 19.1709 11.5096 18.4643 12.2162L14.5371 16.1434C14.538 16.1049 14.5385 16.0663 14.5385 16.0276C14.5385 15.4209 14.4213 14.8326 14.1979 14.2884L17.3672 11.1191C17.7815 10.7048 18.0097 10.1533 18.0097 9.56611C18.0097 8.97893 17.7816 8.42735 17.3673 8.01309C16.511 7.15677 15.1176 7.15677 14.2613 8.01309L8.86725 13.4071C8.01093 14.2634 8.01093 15.6568 8.86725 16.5131C9.29541 16.9412 9.85786 17.1553 10.4203 17.1553C10.5571 17.1553 10.6939 17.1424 10.8288 17.1171L9.38511 18.5608C8.77607 18.3868 8.22125 18.0613 7.77016 17.6102C7.06355 16.9036 6.67443 15.9625 6.67443 14.9601C6.67443 13.9578 7.06359 13.0166 7.77016 12.3101L9.12955 10.9507C9.28971 10.7905 9.28975 10.5308 9.12959 10.3706C8.96938 10.2105 8.70971 10.2105 8.54954 10.3706L7.19012 11.73C6.70429 12.2158 6.34159 12.7926 6.1176 13.4221L1.33604 18.2038C0.47451 19.0653 0 20.2125 0 21.4339C0 22.6553 0.474469 23.8025 1.336 24.664C2.19758 25.5255 3.34474 26 4.56615 26H4.56619C5.78755 26 6.9348 25.5255 7.79629 24.664L13.2025 19.2578C13.6883 18.7719 14.0511 18.1952 14.275 17.5656L19.0444 12.7962C19.9059 11.9347 20.3804 10.7876 20.3804 9.56615ZM14.8413 8.59317C15.3778 8.05673 16.2508 8.05673 16.7872 8.59317C17.0466 8.85252 17.1894 9.19807 17.1894 9.56615C17.1894 9.93422 17.0466 10.2797 16.7872 10.5391L13.7975 13.5289C13.6266 13.2681 13.4279 13.023 13.2025 12.7976C12.7582 12.3533 12.2312 12.0091 11.6534 11.7811L14.8413 8.59317ZM9.44733 15.9331C9.19181 15.6776 9.0583 15.3458 9.04616 15.0103C9.58547 14.5188 10.4242 14.5335 10.9453 15.0547C11.2009 15.3103 11.3344 15.6421 11.3465 15.9776C11.0931 16.2087 10.7667 16.3353 10.4203 16.3353C10.0522 16.3352 9.70668 16.1924 9.44733 15.9331ZM8.7392 19.2067L5.53912 22.4068C5.27978 22.6662 4.93422 22.809 4.56615 22.809C4.19807 22.809 3.85256 22.6662 3.59321 22.4068C3.33383 22.1475 3.19102 21.8019 3.19102 21.4339C3.19102 21.0658 3.33383 20.7203 3.59321 20.4609L6.59519 17.4589C6.76606 17.7197 6.9647 17.9648 7.19012 18.1903C7.6344 18.6345 8.16149 18.9787 8.7392 19.2067ZM12.6224 18.6778L7.21625 24.0839C6.50963 24.7906 5.56849 25.1797 4.56615 25.1797C3.56381 25.1797 2.6227 24.7905 1.91609 24.0839C1.20947 23.3773 0.820354 22.4362 0.820354 21.4339C0.820354 20.4316 1.20951 19.4904 1.91613 18.7838L5.8556 14.8444C5.85465 14.8829 5.85416 14.9215 5.85416 14.9602C5.85416 15.5669 5.97134 16.1552 6.19475 16.6993L3.01321 19.8809C2.59891 20.2952 2.37074 20.8467 2.37074 21.4339C2.37074 22.0211 2.59891 22.5727 3.01317 22.9869C3.44137 23.415 4.00378 23.6291 4.56619 23.6291C5.12859 23.6291 5.69104 23.415 6.1192 22.9869L11.5254 17.5807C12.3818 16.7244 12.3818 15.331 11.5254 14.4747C10.9931 13.9423 10.2533 13.7412 9.56386 13.8707L11.0076 12.427C11.6166 12.601 12.1714 12.9265 12.6225 13.3776C13.3291 14.0842 13.7182 15.0253 13.7182 16.0277C13.7182 17.03 13.3291 17.9712 12.6224 18.6778Z" fill="#1E959B"/>
<path d="M10.1445 9.76556C10.2524 9.76556 10.3582 9.72172 10.4345 9.64539C10.5108 9.5691 10.5547 9.46324 10.5547 9.35541C10.5547 9.24754 10.5108 9.14172 10.4345 9.06547C10.3582 8.98918 10.2524 8.94525 10.1445 8.94525C10.0367 8.94525 9.93084 8.98914 9.85455 9.06547C9.77826 9.14172 9.73438 9.24754 9.73438 9.35541C9.73438 9.46328 9.77826 9.5691 9.85455 9.64539C9.93084 9.72172 10.0367 9.76556 10.1445 9.76556Z" fill="#1E959B"/>
</svg>
